<svg xmlns="http://www.w3.org/2000/svg" viewBox="0 0 700 180" enable-background="new 0 0 700 180"><g><g fill="#333"><path d="M137.994 129.719l-22.76-82.17h-6.62l-24.22 82.17h-8.39v3.23h19.37v-3.23h-7.75l7.43-25.18h20.02l6.78 25.18h-7.26v3.23h30.67v-3.23h-7.27zm-42.13-28.41l9.52-32.45 8.72 32.45h-18.24zm-65.87-53.76v3.23h7.59v78.94h-7.59v3.23h32.29v-3.23h-8.56v-38.91h8.07c5.81 0 8.07 6.46 8.23 13.72h3.23v-30.67h-3.23c-.16 7.43-2.58 13.72-8.23 13.72h-8.07v-36.8h16.47c8.07 0 12.92 9.69 12.92 21.15h3.23v-24.38h-56.35zm121.08 32.93c1.29 5.33 5 9.36 9.85 11.79 3.39 1.78 6.78 2.91 10.49 4.36 3.39 1.45 8.07 2.74 11.3 4.52 3.55 1.94 5 4.36 6.3 7.59 1.45 3.39 1.61 6.46.81 10.17-1.13 5.33-3.55 10.01-8.39 12.59l-.48.16c-2.42.97-5 1.29-7.59.97-1.94-.32-4.04-1.13-5.97-2.26-2.1-1.29-4.04-2.58-5.49-4.2-5.97-6.3-7.26-14.69-8.56-20.34h-3.07v26.96h3.23v-2.42c0-.97 1.13-1.61 2.26-.97 6.46 4.04 18.4 6.62 27.12 4.52 6.3-1.94 11.46-4.52 15.18-10.49 3.23-5.33 5.17-10.98 5-17.44-.16-9.04-4.04-15.66-12.27-20.02-5.49-2.91-12.27-4.2-17.76-6.78-3.71-1.78-7.1-4.04-8.88-7.75-2.91-6.3-2.26-16.14 3.87-20.99 3.23-2.58 7.75-2.58 11.62-2.26 14.85 2.58 15.5 19.37 15.66 26.15h3.23v-24.21l-7.1-1.78c-6.94-1.61-14.69-4.36-22.12-2.26-8.07 2.42-13.88 6.94-16.95 15.18-2.91 6.62-2.91 12.75-1.29 19.21zM206.603 47.869v3.23h7.11v78.62h-7.11v3.23h30.52v-3.23h-7.27v-37.78h22.44v37.78h-7.1v3.23h30.509999999999998v-3.23h-7.1v-78.62h7.1v-3.23h-30.509999999999998v3.23h7.1v37.61h-22.44v-37.61h7.27v-3.23h-23.41zM280.873 47.869v3.23h8.39v78.62h-8.39v3.23h31.799999999999997v-3.23h-7.1v-78.62h7.1v-3.23h-23.409999999999997zM457.964 47.549v3.23h7.27v78.94h-7.27v3.23h30.52v-3.23h-7.11v-78.94h7.11v-3.23h-23.25zM527.874 134.239m21.47-83.46v21.15h3.23c0-11.46 4.84-21.15 12.92-21.15h5.81v78.94h-8.39v3.23h33.08v-3.23h-8.39v-78.94h5.81c8.07 0 12.92 9.69 12.92 21.15h3.23v-24.38h-60.54v3.23h.32zM389.514 48.029v3.23h6.78v78.3h-5.97v3.23h15.98v-3.23h-6.29v-71.84l38.58 75.23h8.72v-82.17h5.65v-3.23h-15.98v3.23h6.47v60.05l-32.14-62.8h-14.53zM365.623 89.839"/><path d="M351.423 46.579c-19.05 0-34.39 14.05-34.39 43.59 0 29.06 15.34 43.59 34.39 43.59s34.39-13.72 34.39-43.59c-.01-29.71-15.51-43.59-34.39-43.59zm0 84.75c-9.52 0-17.27-13.72-17.27-41.17 0-27.93 7.75-41.17 17.27-41.17s17.27 13.08 17.27 41.17c.01 28.26-7.74 41.17-17.27 41.17zm311.73-1.61l-22.92-82.01h-6.62l-24.22 82.01h-8.39v3.23h19.37v-3.23h-7.75l7.43-25.18h20.02l6.78 25.18h-7.26v3.23h30.67v-3.23h-7.11zm-42.12-28.41l9.52-32.45 8.72 32.45h-18.24zm-125.61-20.83c1.29 5.33 5 9.36 9.85 11.79 3.39 1.78 6.78 2.91 10.49 4.36 3.39 1.45 8.07 2.74 11.3 4.52 3.55 1.94 5 4.36 6.3 7.59 1.45 3.39 1.61 6.46.81 10.17-1.13 5.33-3.55 10.01-8.39 12.59l-.48.16c-2.42.97-5 1.29-7.59.97-1.94-.32-4.04-1.13-5.97-2.26-2.1-1.29-4.04-2.58-5.49-4.2-5.97-6.3-7.26-14.69-8.56-20.34h-3.07v26.96h3.23v-2.42c0-.97 1.13-1.61 2.26-.97 6.46 4.04 18.4 6.62 27.12 4.52 6.3-1.94 11.46-4.52 15.18-10.49 3.23-5.33 5.17-10.98 5-17.44-.16-9.04-4.04-15.66-12.27-20.02-5.49-2.91-12.27-4.2-17.76-6.78-3.71-1.78-7.1-4.04-8.88-7.75-2.91-6.3-2.26-16.14 3.87-20.99 3.23-2.58 7.75-2.58 11.62-2.26 14.85 2.58 15.5 19.37 15.66 26.15h3.23v-24.21l-7.1-1.78c-6.94-1.61-14.69-4.36-22.12-2.26-8.07 2.42-13.88 6.94-16.95 15.18-2.73 6.62-2.73 12.75-1.29 19.21z"/></g></g></svg>